# xmcd
#
# Track frame offsets:
#	150
#	11550
#	21080
#	36565
#	49467
#	69322
#	77207
#	87210
#	95770
#	100015
#	107992
#	109807
#	119155
#	125755
#	131842
#	137295
#	148687
#	156020
#	162150
#	168990
#	172637
#	186450
#	199235
#	206790
#	209137
#	211205
#	219685
#	224207
#	233192
#	245887
#	266085
#
# Disc length: 3783 seconds
#
# Revision: 2
# Processed by: cddbd v1.5.2PL0 Copyright (c) Steve Scherf et al.
# Submitted via: EZCDAudioConverter 3.1.5.1
#
DISCID=ef0ec51f
DTITLE=¢ëêçóôç ÐñùôïøÜëôç - Ζωντανή Ηχογράφηση Zoom '91/'92
DYEAR=1992
DGENRE=Greek
TTITLE0=	Απόψε Σε Θέλω
TTITLE1=Πρόσωπο Με Πρόσωπο
TTITLE2=Βενζινάδικο (Kustino Οro)
TTITLE3=Να 'ταν Η Χαρά Οικόπεδο (Borino Οro)
TTITLE4=	Σ' Αγαπώ
TTITLE5=Μια Πίστα Από Φώσφορο
TTITLE6=	Παιδικά Παιχνίδια
TTITLE7=Κοίτα Μια Νύχτα
TTITLE8=	Πάμε Κοπέλες
TTITLE9=Πλoυ-Πλoυ
TTITLE10=	Άδωνις
TTITLE11=Το Νήμα
TTITLE12=	Εχω Στενάχωρη Καρδιά
TTITLE13=Απόψε Στις Ακρογιαλιές
TTITLE14=Καροτσέρη Τράβα
TTITLE15=Την Παρασκευή Το Βράδυ
TTITLE16=	Άρχισαν Τα Όργανα
TTITLE17=	Αλα
TTITLE18=	Πάπλωμα
TTITLE19=	Παλαμάκια
TTITLE20=	Δεν Ξέρω Πόσο Σ' Αγαπώ
TTITLE21=Ήρθα Κι Απόψε Στα Σκαλοπάτια Σου
TTITLE22=Σου Το 'πα Μια Και Δυο Και Τρεις
TTITLE23=Αισθηματίες
TTITLE24=	Ο Μήνας Έχει Εννιά
TTITLE25=Ο Μήνας Έχει Δεκατρείς
TTITLE26=	Εσύ Είσαι Η Αιτία Που Υποφέρω
TTITLE27=Ο Μαθητής
TTITLE28=	Μακεδονίτικα Α) Τι 'Θελα Και Σ' Αγαπούσα Β) Μήλο Μου Κόκκινο Γ) Η Γε
TTITLE28=ρακίνα
TTITLE29=Της Αμύνης Τα Παιδιά (Παρουσίαση Ορχήστρας)
TTITLE30=	Παραδέχτηκα
EXTD=
EXTT0=
EXTT1=
EXTT2=
EXTT3=
EXTT4=
EXTT5=
EXTT6=
EXTT7=
EXTT8=
EXTT9=
EXTT10=
EXTT11=
EXTT12=
EXTT13=
EXTT14=
EXTT15=
EXTT16=
EXTT17=
EXTT18=
EXTT19=
EXTT20=
EXTT21=
EXTT22=
EXTT23=
EXTT24=
EXTT25=
EXTT26=
EXTT27=
EXTT28=
EXTT29=
EXTT30=
PLAYORDER=
